<?xml version="1.0" encoding="UTF-8"?>
<!-- Created with Inkscape (http://www.inkscape.org/) -->
<svg version="1.1" viewBox="0 0 12.7 6.35" xmlns="http://www.w3.org/2000/svg" xmlns:cc="http://creativecommons.org/ns#" xmlns:dc="http://purl.org/dc/elements/1.1/" xmlns:rdf="http://www.w3.org/1999/02/22-rdf-syntax-ns#">
 <metadata>
  <rdf:RDF>
   <cc:Work rdf:about="">
    <dc:format>image/svg+xml</dc:format>
    <dc:type rdf:resource="http://purl.org/dc/dcmitype/StillImage"/>
    <dc:title/>
   </cc:Work>
  </rdf:RDF>
 </metadata>
 <g transform="translate(0,-290.65)">
  <g transform="matrix(.26458 0 0 .26458 .0071779 290.66)">
   <path d="m23.966 11.464c-0.039-1.223-0.664-2.338-1.025-3.447-0.385-1.187-0.54-2.502-1.259-3.49-0.726-0.998-1.934-1.548-2.932-2.274-0.988-0.719-1.881-1.702-3.068-2.087-1.145-0.373-2.439-0.115-3.709-0.115-1.269 0-2.564-0.258-3.709 0.114-1.188 0.385-2.08 1.368-3.068 2.087-0.997 0.726-2.205 1.277-2.932 2.274-0.719 0.988-0.874 2.304-1.259 3.491-0.361 1.11-0.986 2.224-1.025 3.447h-7e-3v1h7e-3c0.039 1.223 0.664 2.338 1.025 3.447 0.385 1.187 0.54 2.502 1.259 3.49 0.726 0.998 1.934 1.548 2.932 2.274 0.988 0.719 1.881 1.702 3.068 2.087 1.145 0.372 2.44 0.114 3.709 0.114s2.564 0.258 3.709-0.114c1.188-0.385 2.08-1.368 3.068-2.087 0.997-0.726 2.205-1.277 2.932-2.274 0.719-0.988 0.874-2.303 1.259-3.49 0.361-1.11 0.986-2.224 1.025-3.447h7e-3v-1z" fill="#a57d52"/>
   <g fill="#503c1d">
    <circle cx="6.5" cy="12.5" r="1.5"/>
    <circle cx="14.5" cy="7.5" r="1.5"/>
    <circle cx="15.5" cy="17.5" r="1.5"/>
   </g>
  </g>
  <g transform="matrix(.26458 0 0 .26458 6.8792 290.65)">
   <path d="m17 0h-10c-0.55 0-1 0.9-1 2v20c0 1.1 0.45 2 1 2h10c0.55 0 1-0.9 1-2v-20c0-1.1-0.45-2-1-2z" fill="#be9664" stroke-width=".70711"/>
   <g transform="matrix(.5 0 0 1 6 0)" fill="#a57d52">
    <path d="m3 17h4v4h-4z"/>
    <path d="m3 10h4v4h-4z"/>
    <path d="m3 3h4v4h-4z"/>
    <path d="m10 17h4v4h-4z"/>
    <path d="m10 10h4v4h-4z"/>
    <path d="m10 3h4v4h-4z"/>
    <path d="m17 17h4v4h-4z"/>
    <path d="m17 10h4v4h-4z"/>
    <path d="m17 3h4v4h-4z"/>
   </g>
  </g>
 </g>
</svg>
