<svg enable-background="new 0 0 24 24" viewBox="0 0 24 24" xmlns="http://www.w3.org/2000/svg"><path d="m23.993 11.5c-.039-1.223-.664-2.338-1.025-3.447-.385-1.187-.54-2.502-1.259-3.49-.726-.998-1.934-1.548-2.932-2.274-.988-.719-1.881-1.702-3.068-2.087-1.145-.373-2.439-.115-3.709-.115-1.269 0-2.564-.258-3.709.114-1.188.385-2.08 1.368-3.068 2.087-.997.726-2.205 1.277-2.932 2.274-.719.988-.874 2.304-1.259 3.491-.361 1.11-.986 2.224-1.025 3.447h-.007v1h.007c.039 1.223.664 2.338 1.025 3.447.385 1.187.54 2.502 1.259 3.49.726.998 1.934 1.548 2.932 2.274.988.719 1.881 1.702 3.068 2.087 1.145.372 2.44.114 3.709.114s2.564.258 3.709-.114c1.188-.385 2.08-1.368 3.068-2.087.997-.726 2.205-1.277 2.932-2.274.719-.988.874-2.303 1.259-3.49.361-1.11.986-2.224 1.025-3.447h.007v-1z" fill="#a57d52"/><g fill="#503c1d"><circle cx="6.5" cy="12.5" r="1.5"/><circle cx="14.5" cy="7.5" r="1.5"/><circle cx="15.5" cy="17.5" r="1.5"/></g></svg>