<?xml version="1.0" encoding="UTF-8"?>
<svg enable-background="new 0 0 24 24" version="1.1" viewBox="0 0 24 24" xmlns="http://www.w3.org/2000/svg" xmlns:cc="http://creativecommons.org/ns#" xmlns:dc="http://purl.org/dc/elements/1.1/" xmlns:rdf="http://www.w3.org/1999/02/22-rdf-syntax-ns#">
 <metadata>
  <rdf:RDF>
   <cc:Work rdf:about="">
    <dc:format>image/svg+xml</dc:format>
    <dc:type rdf:resource="http://purl.org/dc/dcmitype/StillImage"/>
    <dc:title/>
   </cc:Work>
  </rdf:RDF>
 </metadata>
 <path d="m17 0h-10c-0.55 0-1 0.9-1 2v20c0 1.1 0.45 2 1 2h10c0.55 0 1-0.9 1-2v-20c0-1.1-0.45-2-1-2z" fill="#be9664" stroke-width=".70711"/>
 <g transform="matrix(.5 0 0 1 6 0)" fill="#a57d52">
  <path d="m3 17h4v4h-4z"/>
  <path d="m3 10h4v4h-4z"/>
  <path d="m3 3h4v4h-4z"/>
  <path d="m10 17h4v4h-4z"/>
  <path d="m10 10h4v4h-4z"/>
  <path d="m10 3h4v4h-4z"/>
  <path d="m17 17h4v4h-4z"/>
  <path d="m17 10h4v4h-4z"/>
  <path d="m17 3h4v4h-4z"/>
 </g>
</svg>
